<svg xmlns="http://www.w3.org/2000/svg" width="192" height="42" viewBox="0 0 192 42" fill="none" class="mt-5" data-v-cbebf492=""><path d="M189.831 37.8127C190.954 37.6186 191.707 36.5512 191.513 35.4285L188.351 17.1329C188.157 16.0102 187.09 15.2573 185.967 15.4513C184.844 15.6453 184.092 16.7127 184.286 17.8355L187.096 34.0983L170.833 36.9086C169.71 37.1026 168.958 38.1701 169.152 39.2928C169.346 40.4155 170.413 41.1683 171.536 40.9743L189.831 37.8127ZM3.56004 40.8186C16.1283 27.5524 40.5238 11.3271 72.655 6.11316C104.712 0.911238 144.597 6.64822 188.291 37.4657L190.669 34.094C146.13 2.67988 105.16 -3.34137 71.9941 2.04047C38.9019 7.41032 13.7053 24.1107 0.56481 37.981L3.56004 40.8186Z" fill="#001540"/></svg>