<svg xmlns="http://www.w3.org/2000/svg" width="38" height="39" viewBox="0 0 38 39" fill="none" data-v-cbebf492=""><circle cx="18.9266" cy="19.72" r="18.9266" fill="#EAF0FD"/> <path opacity="0.4" d="M25 26.5804H24.24C23.44 26.5804 22.68 26.8904 22.12 27.4504L20.41 29.1404C19.63 29.9104 18.36 29.9104 17.58 29.1404L15.87 27.4504C15.31 26.8904 14.54 26.5804 13.75 26.5804H13C11.34 26.5804 10 25.2505 10 23.6105V12.7004C10 11.0604 11.34 9.73047 13 9.73047H25C26.66 9.73047 28 11.0604 28 12.7004V23.6105C28 25.2405 26.66 26.5804 25 26.5804Z" fill="#5285F2"/> <path d="M17.3802 22.2302H14.7002C14.2602 22.2302 13.8502 22.0202 13.5902 21.6602C13.3402 21.3202 13.2802 20.9002 13.4002 20.5002C13.7502 19.4302 14.6102 18.8501 15.3702 18.3301C16.1702 17.7901 16.6202 17.4502 16.6202 16.8702C16.6202 16.3502 16.2002 15.9302 15.6802 15.9302C15.1602 15.9302 14.7402 16.3502 14.7402 16.8702C14.7402 17.2802 14.4002 17.6202 13.9902 17.6202C13.5802 17.6202 13.2402 17.2802 13.2402 16.8702C13.2402 15.5302 14.3302 14.4302 15.6802 14.4302C17.0302 14.4302 18.1202 15.5202 18.1202 16.8702C18.1202 18.2802 17.0602 19.0001 16.2102 19.5801C15.6802 19.9401 15.1802 20.2802 14.9302 20.7302H17.3702C17.7802 20.7302 18.1202 21.0702 18.1202 21.4802C18.1202 21.8902 17.7902 22.2302 17.3802 22.2302Z" fill="#5285F2"/> <path d="M23.0389 22.2302C22.6289 22.2302 22.2889 21.8902 22.2889 21.4802V20.7902H20.3289C20.3289 20.7902 20.3289 20.7902 20.3189 20.7902C19.8289 20.7902 19.3789 20.5302 19.1289 20.1102C18.8789 19.6802 18.8789 19.1502 19.1289 18.7302C19.8089 17.5602 20.5989 16.2301 21.3189 15.0701C21.6389 14.5601 22.2489 14.3302 22.8189 14.4902C23.3889 14.6602 23.7889 15.1801 23.7789 15.7801V19.3002H23.9989C24.4089 19.3002 24.7489 19.6402 24.7489 20.0502C24.7489 20.4602 24.4089 20.8002 23.9989 20.8002H23.7889V21.4902C23.7889 21.9002 23.4589 22.2302 23.0389 22.2302ZM22.2889 16.3602C21.6989 17.3202 21.0889 18.3502 20.5389 19.2902H22.2889V16.3602Z" fill="#5285F2"/></svg>