<svg xmlns="http://www.w3.org/2000/svg" width="38" height="39" viewBox="0 0 38 39" fill="none" data-v-cbebf492=""><circle cx="18.9266" cy="19.4266" r="18.9266" fill="#EAF0FD"/> <path opacity="0.4" d="M24 27.9268H14C11 27.9268 9 26.4268 9 22.9268V15.9268C9 12.4268 11 10.9268 14 10.9268H24C27 10.9268 29 12.4268 29 15.9268V22.9268C29 26.4268 27 27.9268 24 27.9268Z" fill="#5285F2"/> <path d="M19 22.4268C20.6569 22.4268 22 21.0836 22 19.4268C22 17.7699 20.6569 16.4268 19 16.4268C17.3431 16.4268 16 17.7699 16 19.4268C16 21.0836 17.3431 22.4268 19 22.4268Z" fill="#5285F2"/> <path d="M26 15.1768H23C22.59 15.1768 22.25 14.8368 22.25 14.4268C22.25 14.0168 22.59 13.6768 23 13.6768H26C26.41 13.6768 26.75 14.0168 26.75 14.4268C26.75 14.8368 26.41 15.1768 26 15.1768Z" fill="#5285F2"/> <path d="M15 25.1768H12C11.59 25.1768 11.25 24.8368 11.25 24.4268C11.25 24.0168 11.59 23.6768 12 23.6768H15C15.41 23.6768 15.75 24.0168 15.75 24.4268C15.75 24.8368 15.41 25.1768 15 25.1768Z" fill="#5285F2"/></svg>