<svg xmlns="http://www.w3.org/2000/svg" width="38" height="39" viewBox="0 0 38 39" fill="none" data-v-cbebf492=""><circle cx="18.9266" cy="19.867" r="18.9266" fill="#EAF0FD"/> <path d="M28.6721 14.8171C28.0321 12.6471 26.2221 10.8371 24.0521 10.1971C22.4021 9.71709 21.2621 9.75709 20.4721 10.3471C19.5221 11.0571 19.4121 12.3371 19.4121 13.2471V15.7371C19.4121 18.1971 20.5321 19.4471 22.7321 19.4471H25.6021C26.5021 19.4471 27.7921 19.3371 28.5021 18.3871C29.1121 17.6071 29.1621 16.4671 28.6721 14.8171Z" fill="#5285F2"/> <path opacity="0.4" d="M25.9114 21.2268C25.6514 20.9268 25.2714 20.7568 24.8814 20.7568H21.3014C19.5414 20.7568 18.1114 19.3268 18.1114 17.5668V13.9868C18.1114 13.5968 17.9414 13.2168 17.6414 12.9568C17.3514 12.6968 16.9514 12.5768 16.5714 12.6268C14.2214 12.9268 12.0614 14.2168 10.6514 16.1568C9.23136 18.1068 8.71136 20.4868 9.16136 22.8668C9.81136 26.3068 12.5614 29.0569 16.0114 29.7069C16.5614 29.8169 17.1114 29.8668 17.6614 29.8668C19.4714 29.8668 21.2214 29.3068 22.7114 28.2168C24.6514 26.8068 25.9414 24.6468 26.2414 22.2968C26.2914 21.9068 26.1714 21.5168 25.9114 21.2268Z" fill="#5285F2"/></svg>