<svg xmlns="http://www.w3.org/2000/svg" width="38" height="38" viewBox="0 0 38 38" fill="none" data-v-cbebf492=""><circle cx="18.9266" cy="19.014" r="18.9266" fill="#EAF0FD"/> <path opacity="0.4" d="M13.73 26.7142C14.55 25.8342 15.8 25.9042 16.52 26.8642L17.53 28.2142C18.34 29.2842 19.65 29.2842 20.46 28.2142L21.47 26.8642C22.19 25.9042 23.44 25.8342 24.26 26.7142C26.04 28.6142 27.49 27.9842 27.49 25.3242V14.0542C27.5 10.0242 26.56 9.01416 22.78 9.01416H15.22C11.44 9.01416 10.5 10.0242 10.5 14.0542V25.3142C10.5 27.9842 11.96 28.6042 13.73 26.7142Z" fill="#5285F2"/> <path d="M22 21.0142C21.44 21.0142 21 20.5642 21 20.0142C21 19.4642 21.45 19.0142 22 19.0142C22.55 19.0142 23 19.4642 23 20.0142C23 20.5642 22.56 21.0142 22 21.0142Z" fill="#5285F2"/> <path d="M16 16.0142C15.44 16.0142 15 15.5642 15 15.0142C15 14.4642 15.45 14.0142 16 14.0142C16.55 14.0142 17 14.4642 17 15.0142C17 15.5642 16.56 16.0142 16 16.0142Z" fill="#5285F2"/> <path d="M15.6303 21.5639C15.4403 21.5639 15.2503 21.4939 15.1003 21.3439C14.8103 21.0539 14.8103 20.5739 15.1003 20.2839L21.8303 13.5539C22.1203 13.2639 22.6003 13.2639 22.8903 13.5539C23.1803 13.8439 23.1803 14.3239 22.8903 14.6139L16.1603 21.3439C16.0203 21.4939 15.8203 21.5639 15.6303 21.5639Z" fill="#5285F2"/></svg>