<svg xmlns="http://www.w3.org/2000/svg" width="38" height="39" viewBox="0 0 38 39" fill="none" data-v-cbebf492=""><circle cx="18.9266" cy="19.573" r="18.9266" fill="#EAF0FD"/> <path d="M28.0391 20.8531L27.1191 19.9531L19.3691 27.6931L20.2991 28.6231C21.0791 29.4031 21.8891 29.7931 22.6891 29.7931C23.4891 29.7931 24.2991 29.4031 25.0791 28.6231L28.0391 25.6631C29.6291 24.0631 29.6291 22.4531 28.0391 20.8531Z" fill="#5285F2"/> <path d="M17.6898 10.5032C16.1198 8.93318 14.4698 8.93318 12.8998 10.5032L9.92977 13.4632C8.36977 15.0332 8.36977 16.6832 9.92977 18.2532L10.8498 19.1732L18.5998 11.4232L17.6898 10.5032Z" fill="#5285F2"/> <path opacity="0.4" d="M28.8098 11.5133C27.4998 14.7833 24.5098 19.0533 21.6598 21.8433C21.2498 19.2633 19.1898 17.2433 16.5898 16.8833C19.3898 14.0233 23.6898 10.9933 26.9698 9.67333C27.5498 9.45333 28.1298 9.62333 28.4898 9.98333C28.8698 10.3633 29.0498 10.9333 28.8098 11.5133Z" fill="#5285F2"/> <path d="M21.6595 21.8433C21.1595 22.3333 20.6595 22.7833 20.1795 23.1633L18.2095 24.7433C17.9595 24.9233 17.7095 25.0733 17.4295 25.1933C17.4295 25.0033 17.4095 24.8133 17.3895 24.6133C17.2795 23.7833 16.8995 22.9933 16.2295 22.3233C15.5395 21.6433 14.7195 21.2533 13.8695 21.1433C13.6695 21.1233 13.4595 21.1133 13.2695 21.1233C13.3795 20.8133 13.5495 20.5233 13.7595 20.2833L15.3195 18.3133C15.6895 17.8433 16.1195 17.3633 16.5895 16.8833C19.1895 17.2433 21.2495 19.2633 21.6595 21.8433Z" fill="#5285F2"/> <path opacity="0.4" d="M17.4298 25.1931C17.4298 26.2931 17.0098 27.3431 16.2098 28.1331C15.5998 28.7531 14.7798 29.1731 13.7798 29.2931L11.3298 29.5631C9.98976 29.7131 8.83976 28.5631 8.98976 27.2131L9.25976 24.7531C9.49976 22.5631 11.3298 21.1631 13.2698 21.1231C13.4598 21.1131 13.6698 21.1231 13.8698 21.1431C14.7198 21.2531 15.5398 21.6431 16.2298 22.3231C16.8998 22.9931 17.2798 23.7831 17.3898 24.6131C17.4098 24.8131 17.4298 25.0031 17.4298 25.1931Z" fill="#5285F2"/></svg>