<svg xmlns="http://www.w3.org/2000/svg" width="24" height="25" viewBox="0 0 24 25" fill="none" data-v-cbebf492=""><path opacity="0.4" d="M12 22.0874C17.5228 22.0874 22 17.6103 22 12.0874C22 6.56455 17.5228 2.0874 12 2.0874C6.47715 2.0874 2 6.56455 2 12.0874C2 17.6103 6.47715 22.0874 12 22.0874Z" fill="#25AD25"/> <path d="M10.5814 15.6675C10.3814 15.6675 10.1914 15.5875 10.0514 15.4475L7.22141 12.6175C6.93141 12.3275 6.93141 11.8475 7.22141 11.5575C7.51141 11.2675 7.99141 11.2675 8.28141 11.5575L10.5814 13.8575L15.7214 8.7175C16.0114 8.4275 16.4914 8.4275 16.7814 8.7175C17.0714 9.0075 17.0714 9.4875 16.7814 9.7775L11.1114 15.4475C10.9714 15.5875 10.7814 15.6675 10.5814 15.6675Z" fill="#25AD25"/></svg>